<svg width="140" height="35" fill="none" xmlns="http://www.w3.org/2000/svg">
  <path stroke="currentColor" stroke-width=".2" d="M.1.1h139.8v34.8H.1z"/>
  <path d="m19.115 14.355-.576.381a3.746 3.746 0 0 0-1.377-1.23 3.747 3.747 0 0 0-1.826-.46c-1.068 0-1.98.379-2.734 1.134a3.726 3.726 0 0 0-1.133 2.734c0 1.068.377 1.98 1.133 2.734a3.726 3.726 0 0 0 2.734 1.133c.657 0 1.266-.153 1.826-.459a3.83 3.83 0 0 0 1.377-1.24l.566.41a4.533 4.533 0 0 1-1.62 1.455 4.458 4.458 0 0 1-2.15.537c-.618 0-1.21-.12-1.776-.361a4.611 4.611 0 0 1-1.455-.977 4.611 4.611 0 0 1-1.338-3.232c0-.618.12-1.208.361-1.768.24-.566.566-1.054.976-1.464.41-.41.896-.736 1.456-.977a4.495 4.495 0 0 1 1.777-.361c.775 0 1.494.182 2.158.547a4.498 4.498 0 0 1 1.621 1.464Zm1.162-.8-.586.38a5.212 5.212 0 0 0-1.875-1.67 5.086 5.086 0 0 0-2.48-.624c-.957 0-1.84.237-2.646.713a5.267 5.267 0 0 0-1.924 1.914 5.178 5.178 0 0 0-.704 2.646c0 .957.235 1.84.704 2.646a5.344 5.344 0 0 0 1.924 1.924c.807.47 1.689.703 2.646.703.892 0 1.722-.208 2.49-.625a5.263 5.263 0 0 0 1.875-1.689l.576.4a5.907 5.907 0 0 1-2.129 1.915 5.815 5.815 0 0 1-2.812.703c-1.08 0-2.08-.267-2.998-.801a5.92 5.92 0 0 1-2.178-2.178 5.859 5.859 0 0 1-.8-2.998c0-1.08.266-2.08.8-2.998a5.92 5.92 0 0 1 2.178-2.178 5.859 5.859 0 0 1 2.998-.8c1.01 0 1.947.234 2.812.703a5.908 5.908 0 0 1 2.13 1.914Zm1.172-.782-.586.381a6.588 6.588 0 0 0-2.383-2.129 6.48 6.48 0 0 0-3.144-.79c-.905 0-1.77.175-2.598.527a6.69 6.69 0 0 0-2.138 1.425 6.656 6.656 0 0 0-1.416 2.13 6.572 6.572 0 0 0-.528 2.597c0 .905.176 1.77.528 2.598.351.826.823 1.54 1.416 2.138a6.775 6.775 0 0 0 2.138 1.416 6.57 6.57 0 0 0 2.598.528 6.499 6.499 0 0 0 3.154-.791 6.697 6.697 0 0 0 2.373-2.139l.567.42a7.375 7.375 0 0 1-2.627 2.354 7.219 7.219 0 0 1-3.467.859 7.243 7.243 0 0 1-3.701-.986 7.43 7.43 0 0 1-2.696-2.696 7.244 7.244 0 0 1-.986-3.7c0-1.336.329-2.57.986-3.702a7.355 7.355 0 0 1 2.696-2.686 7.19 7.19 0 0 1 3.7-.996c1.25 0 2.413.293 3.487.88a7.341 7.341 0 0 1 2.627 2.362Zm1.153-.8-.586.38a8.02 8.02 0 0 0-2.881-2.578 7.884 7.884 0 0 0-3.8-.947 7.902 7.902 0 0 0-3.144.645 8.057 8.057 0 0 0-2.578 1.718 8.162 8.162 0 0 0-1.728 2.588 7.936 7.936 0 0 0-.635 3.135c0 1.094.212 2.142.635 3.145a8.19 8.19 0 0 0 1.728 2.578 8.19 8.19 0 0 0 2.578 1.728 8.006 8.006 0 0 0 3.145.635c1.36 0 2.63-.319 3.809-.957a8.108 8.108 0 0 0 2.88-2.588l.567.43a8.846 8.846 0 0 1-3.125 2.793 8.613 8.613 0 0 1-4.131 1.025A8.543 8.543 0 0 1 11.918 25a8.907 8.907 0 0 1-2.803-1.865 9.045 9.045 0 0 1-1.875-2.803 8.647 8.647 0 0 1-.693-3.418c0-1.191.231-2.327.693-3.408a8.895 8.895 0 0 1 1.875-2.803 8.824 8.824 0 0 1 2.803-1.875 8.544 8.544 0 0 1 3.418-.703c1.484 0 2.865.345 4.14 1.035a8.776 8.776 0 0 1 3.126 2.813Zm22.826-3.145h.703V25h-.703V8.828Zm-15.469 0h.703V25h-.703V8.828Zm14.063 0h.703V25h-.703V8.828Zm-1.407 0h.703V25h-.703V8.828Zm-1.406 0h.703V25h-.703v-6.338h-6.328V25h-.703V8.828h.703v6.319h6.328V8.828Zm-8.438 0h.704V25h-.703V8.828Zm-1.406 0h.703V25h-.703V8.828Zm9.844 9.131v-.703h-6.328v.703h6.328Zm0-1.406v-.703h-6.328v.703h6.328Zm19.76 3.7.283-.702h2.402l.283.703H60.97Zm-.547 1.407.273-.703h3.506l.303.703h-4.082Zm-.547 1.406.273-.703h4.61l.293.703h-5.176ZM54.162 25H53.4l6.397-16.172h.762L66.945 25h-.752L60.178 9.775 54.162 25Zm6.104-13.555.4.899-5 12.656h-.752l5.352-13.555Zm.78 1.856.372.967L57.19 25h-.762l4.619-11.7Zm.743 1.933.371.987L58.693 25h-.752l3.848-9.766ZM71.486 25h-.761L64.338 8.828h.752L71.486 25Zm-7.91-16.172L69.973 25h-.752L62.824 8.828h.752Zm-1.514 0L68.46 25h-.762L61.31 8.828h.752Zm16.342.703v-.703h10.547v.703H78.404Zm0 1.406v-.703h10.547v.704H78.404Zm0 1.407v-.703h10.547v.703H86.14V25h-.703V12.344h-.704V25h-.703V12.344h-.703V25h-.703V12.344h-.703V25h-.703V12.344h-2.813ZM100.068 25h-.703V8.828h.703V25Zm-1.406 0h-.703V8.828h.703V25Zm-1.406 0h-.703V8.828h.703V25Zm4.219-3.516h7.48v.703h-7.48v.704h7.48v.703h-7.48v.703h7.48V25h-8.184V8.828h8.184v.703h-7.48v.703h7.48v.704h-7.48v.703h7.48v.703h-7.48v2.812h3.837v.703h-3.837v.704h3.837v.703h-3.837v.703h3.837v.703h-3.837v2.812Zm19.437-.703v-7.734h4.795c.775 0 1.439.38 1.992 1.143.56.755.84 1.663.84 2.724 0 1.068-.28 1.98-.84 2.734-.553.756-1.217 1.133-1.992 1.133h-4.795Zm.703-.703h4.092c.579 0 1.074-.31 1.484-.928.417-.618.625-1.363.625-2.236 0-.879-.208-1.624-.625-2.236-.41-.619-.905-.928-1.484-.928h-4.092v6.328Zm-1.406 1.406h5.498c.97 0 1.803-.446 2.5-1.338.703-.898 1.055-1.975 1.055-3.232 0-.827-.163-1.592-.489-2.295-.319-.703-.752-1.256-1.298-1.66-.541-.41-1.13-.615-1.768-.615h-5.498v9.14Zm-.703.703V11.642h6.201c.762 0 1.471.234 2.129.703.657.469 1.178 1.11 1.562 1.924a5.99 5.99 0 0 1 .586 2.646 6.03 6.03 0 0 1-.586 2.646c-.384.814-.905 1.456-1.562 1.924-.658.47-1.367.703-2.129.703h-6.201Zm-.703.704h6.904c.892 0 1.719-.267 2.481-.801.768-.534 1.38-1.26 1.835-2.178a6.645 6.645 0 0 0 .684-2.998c0-1.074-.228-2.07-.684-2.988-.455-.925-1.067-1.654-1.835-2.188-.769-.534-1.596-.8-2.481-.8h-6.904V22.89Zm-.703.703v-13.36h7.607c1.016 0 1.963.3 2.842.899.879.592 1.579 1.403 2.099 2.432a7.307 7.307 0 0 1 .782 3.35c0 1.204-.261 2.32-.782 3.349-.52 1.028-1.22 1.842-2.099 2.441-.879.593-1.826.889-2.842.889H118.1Zm-.704.703h8.311c.853 0 1.676-.195 2.471-.586a6.598 6.598 0 0 0 2.06-1.572c.58-.658 1.042-1.442 1.387-2.354a7.95 7.95 0 0 0 .527-2.87c0-.997-.175-1.95-.527-2.862-.345-.912-.807-1.696-1.387-2.354a6.531 6.531 0 0 0-2.06-1.582 5.537 5.537 0 0 0-2.471-.586h-8.311v14.766Zm8.311.703h-9.014V8.828h9.014c1.27 0 2.454.361 3.555 1.084 1.1.723 1.976 1.706 2.627 2.95.657 1.243.986 2.594.986 4.052a8.578 8.578 0 0 1-.586 3.145c-.384.996-.898 1.855-1.543 2.578a7.319 7.319 0 0 1-2.295 1.728 6.25 6.25 0 0 1-2.744.635Z" fill="currentColor"/>
</svg>
